<svg width="312" height="231" viewBox="0 0 312 231" fill="none" xmlns="http://www.w3.org/2000/svg">
<g clip-path="url(#clip0_48_70)">
<path fill-rule="evenodd" clip-rule="evenodd" d="M234.047 67.6895C224.316 67.6895 215.003 69.4818 206.415 72.7482V72.7329C206.415 34.9454 175.862 4.31295 138.173 4.31295C106.594 4.31295 80.0284 25.8208 72.2441 55.0218C31.3938 60.9193 0 96.1534 0 138.743C0 183.972 35.4033 220.91 79.9412 223.223V223.755H227.872C229.91 223.915 231.969 223.999 234.048 223.999C236.127 223.999 238.187 223.916 240.225 223.755H240.25V223.753C280.402 220.584 312 186.915 312 145.844C312 102.681 277.1 67.6884 234.048 67.6884" fill="#EFF3FF" fill-opacity="0.1"/>
<path fill-rule="evenodd" clip-rule="evenodd" d="M256.651 156.922L253.948 155.128C252.819 154.378 252.311 152.962 252.733 151.673C253.546 149.176 254.031 146.622 254.205 144.06C254.299 142.701 255.294 141.578 256.623 141.309L259.798 140.654C261.445 140.321 262.512 138.711 262.179 137.06L260.939 130.961C260.603 129.309 258.992 128.244 257.345 128.579L254.169 129.228C252.837 129.5 251.483 128.856 250.87 127.644C249.712 125.354 248.266 123.192 246.544 121.215C245.652 120.193 245.568 118.696 246.32 117.561L248.105 114.849C249.036 113.443 248.647 111.552 247.247 110.62L242.068 107.186C240.668 106.253 238.78 106.641 237.85 108.046L236.062 110.754C235.313 111.887 233.903 112.399 232.616 111.977C230.128 111.16 227.58 110.674 225.026 110.5C223.668 110.409 222.55 109.407 222.278 108.074L221.632 104.89C221.297 103.237 219.689 102.17 218.042 102.511L211.958 103.75C210.31 104.088 209.249 105.7 209.584 107.352L210.23 110.537C210.501 111.871 209.86 113.229 208.648 113.842C206.366 115.006 204.21 116.455 202.236 118.179C201.218 119.076 199.723 119.156 198.59 118.409L195.889 116.616C194.487 115.684 192.599 116.072 191.67 117.476L188.245 122.668C187.318 124.075 187.703 125.966 189.105 126.898L191.806 128.691C192.936 129.441 193.443 130.852 193.023 132.148C192.208 134.636 191.724 137.194 191.55 139.755C191.462 141.117 190.463 142.239 189.134 142.512L185.956 143.16C184.308 143.493 183.245 145.108 183.581 146.761L184.817 152.857C185.154 154.511 186.765 155.575 188.412 155.24L191.585 154.588C192.919 154.318 194.271 154.96 194.885 156.177C196.046 158.464 197.489 160.629 199.21 162.602C200.103 163.624 200.189 165.129 199.44 166.262L197.652 168.971C196.722 170.376 197.107 172.271 198.511 173.2L203.687 176.637C205.087 177.564 206.978 177.178 207.908 175.773L209.694 173.063C210.441 171.93 211.851 171.422 213.145 171.843C215.628 172.659 218.177 173.145 220.731 173.321C222.084 173.411 223.206 174.41 223.477 175.743L224.123 178.927C224.46 180.582 226.068 181.649 227.716 181.311L233.798 180.068C235.445 179.732 236.511 178.12 236.174 176.467L235.526 173.28C235.256 171.947 235.896 170.59 237.106 169.972C239.394 168.815 241.548 167.366 243.518 165.637C244.541 164.743 246.032 164.656 247.162 165.408L249.869 167.2C251.269 168.133 253.16 167.747 254.087 166.338L257.512 161.147C258.441 159.742 258.055 157.848 256.651 156.921M235.161 153.485C230.352 158.691 222.547 160.286 216.09 157.379C205.43 152.583 202.659 138.929 210.596 130.331C215.406 125.128 223.208 123.531 229.663 126.439C240.324 131.235 243.1 144.888 235.161 153.485Z" fill="#DAE4FF" fill-opacity="0.2"/>
<mask id="mask0_48_70" style="mask-type:luminance" maskUnits="userSpaceOnUse" x="94" y="13" width="115" height="211">
<path d="M194.646 13.9974H108.764C100.891 13.9974 94.4509 20.5401 94.4509 28.5383V209.094C94.4509 217.091 100.891 223.635 108.764 223.635H194.648C202.52 223.635 208.961 217.091 208.961 209.094V28.5383C208.961 20.5412 202.52 13.9974 194.648 13.9974" fill="white"/>
</mask>
<g mask="url(#mask0_48_70)">
<path d="M208.961 13.9974H94.4509V223.635H208.961V13.9974Z" fill="#525253"/>
</g>
<path fill-rule="evenodd" clip-rule="evenodd" d="M200.883 13.9974H115C107.127 13.9974 100.686 20.5401 100.686 28.5383V209.094C100.686 217.091 107.127 223.635 115 223.635H200.883C208.756 223.635 215.196 217.091 215.196 209.094V28.5383C215.196 20.5412 208.756 13.9974 200.883 13.9974Z" fill="#6E6E6E"/>
<mask id="mask1_48_70" style="mask-type:luminance" maskUnits="userSpaceOnUse" x="106" y="24" width="104" height="191">
<path d="M201.558 24.362C205.727 24.362 209.164 27.7247 209.164 31.8036V207.234C209.164 211.314 205.728 214.675 201.558 214.675H114.325C110.155 214.675 106.719 211.314 106.719 207.234V31.8036C106.719 27.7236 110.155 24.362 114.325 24.362H201.558Z" fill="white"/>
</mask>
<g mask="url(#mask1_48_70)">
<path d="M209.164 24.362H106.719V214.675H209.164V24.362Z" fill="url(#paint0_linear_48_70)"/>
</g>
<path fill-rule="evenodd" clip-rule="evenodd" d="M201.558 24.362C205.727 24.362 209.164 27.7247 209.164 31.8036V37.7766H106.719V31.8036C106.719 27.7236 110.155 24.362 114.325 24.362H201.558Z" fill="#E6FAD6"/>
<path fill-rule="evenodd" clip-rule="evenodd" d="M149.333 18.002H170.16C170.762 18.002 171.255 18.4963 171.255 19.0999C171.255 19.7046 170.762 20.1989 170.16 20.1989H149.333C148.731 20.1989 148.238 19.7046 148.238 19.101C148.238 18.4963 148.731 18.002 149.333 18.002Z" fill="#2E3191"/>
<path d="M124.802 52.9178H221.821C225.343 52.9178 228.225 55.807 228.225 59.3381V200.103C228.225 203.634 225.343 206.523 221.821 206.523H124.802C121.28 206.523 118.398 203.634 118.398 200.103V59.337C118.398 55.8059 121.28 52.9167 124.802 52.9167" fill="#D9D9D9"/>
<path fill-rule="evenodd" clip-rule="evenodd" d="M127.525 58.4545H219.098C221.081 58.4545 222.703 60.0806 222.703 62.0686V190.009C222.703 191.996 221.081 193.623 219.098 193.623H127.525C125.543 193.623 123.921 191.997 123.921 190.009V62.0686C123.921 60.0817 125.543 58.4545 127.525 58.4545Z" fill="white"/>
<path fill-rule="evenodd" clip-rule="evenodd" d="M133.099 49.1779C134.156 49.1779 135.022 50.0451 135.022 51.1047V61.3043C135.022 62.3639 134.157 63.2322 133.099 63.2322C132.041 63.2322 131.176 62.365 131.176 61.3043V51.1047C131.176 50.0451 132.041 49.1779 133.099 49.1779Z" fill="#5B5B5B"/>
<path fill-rule="evenodd" clip-rule="evenodd" d="M153.205 49.1779C154.262 49.1779 155.128 50.0451 155.128 51.1047V61.3043C155.128 62.3639 154.263 63.2322 153.205 63.2322C152.147 63.2322 151.282 62.365 151.282 61.3043V51.1047C151.282 50.0451 152.147 49.1779 153.205 49.1779Z" fill="#5B5B5B"/>
<path fill-rule="evenodd" clip-rule="evenodd" d="M173.312 49.1779C174.369 49.1779 175.235 50.0451 175.235 51.1047V61.3043C175.235 62.3639 174.37 63.2322 173.312 63.2322C172.254 63.2322 171.389 62.365 171.389 61.3043V51.1047C171.389 50.0451 172.254 49.1779 173.312 49.1779Z" fill="#5B5B5B"/>
<path fill-rule="evenodd" clip-rule="evenodd" d="M193.418 49.1779C194.475 49.1779 195.341 50.0451 195.341 51.1047V61.3043C195.341 62.3639 194.476 63.2322 193.418 63.2322C192.36 63.2322 191.495 62.365 191.495 61.3043V51.1047C191.495 50.0451 192.36 49.1779 193.418 49.1779Z" fill="#5B5B5B"/>
<path fill-rule="evenodd" clip-rule="evenodd" d="M213.524 49.1779C214.581 49.1779 215.447 50.0451 215.447 51.1047V61.3043C215.447 62.3639 214.582 63.2322 213.524 63.2322C212.466 63.2322 211.602 62.365 211.602 61.3043V51.1047C211.602 50.0451 212.466 49.1779 213.524 49.1779Z" fill="#5B5B5B"/>
<path d="M214.769 75.3531H212.778C212.683 75.3531 212.603 75.3859 212.537 75.4526C212.471 75.5193 212.438 75.6002 212.438 75.6953V82.8209C212.438 82.916 212.408 82.997 212.345 83.0637C212.284 83.1304 212.201 83.1632 212.097 83.1632H209.964C209.869 83.1632 209.789 83.1304 209.723 83.0637C209.657 82.997 209.624 82.916 209.624 82.8209V75.6953C209.624 75.6002 209.594 75.5193 209.531 75.4526C209.47 75.3859 209.386 75.3531 209.283 75.3531H207.264C207.169 75.3531 207.088 75.3192 207.022 75.2535C206.955 75.1868 206.922 75.1059 206.922 75.0108V73.073C206.922 72.9779 206.955 72.897 207.022 72.8302C207.088 72.7635 207.169 72.7307 207.264 72.7307H214.769C214.874 72.7307 214.957 72.7646 215.018 72.8302C215.079 72.897 215.11 72.9779 215.11 73.073V75.0108C215.11 75.1059 215.08 75.1868 215.018 75.2535C214.957 75.3203 214.874 75.3531 214.769 75.3531ZM199.759 79.5862C200.27 79.9186 200.777 80.18 201.279 80.3703C201.782 80.5605 202.251 80.6557 202.686 80.6557C203.121 80.6557 203.42 80.5966 203.638 80.4774C203.856 80.3582 203.965 80.1811 203.965 79.9427C203.965 79.8191 203.919 79.7218 203.824 79.6507C203.729 79.5796 203.603 79.5206 203.447 79.4725C203.291 79.4254 203.108 79.3872 202.9 79.3587C202.692 79.3303 202.478 79.292 202.26 79.245C202.051 79.2067 201.807 79.1619 201.528 79.1094C201.249 79.0569 200.962 78.9815 200.668 78.8808C200.375 78.7813 200.084 78.6556 199.795 78.5036C199.506 78.3516 199.247 78.1569 199.02 77.9196C198.793 77.6823 198.61 77.3991 198.473 77.0721C198.335 76.7441 198.267 76.3569 198.267 75.9108C198.267 75.2546 198.394 74.7133 198.65 74.2858C198.907 73.8582 199.231 73.5192 199.624 73.2666C200.018 73.0151 200.456 72.839 200.939 72.7395C201.422 72.64 201.891 72.5897 202.346 72.5897C203.142 72.5897 203.855 72.7067 204.485 72.9385C205.115 73.1714 205.719 73.5104 206.297 73.9577C206.374 74.0244 206.416 74.1053 206.425 74.2005C206.435 74.2956 206.411 74.3809 206.354 74.4564L205.246 76.0387C205.189 76.1142 205.113 76.1623 205.019 76.1809C204.924 76.1995 204.839 76.1809 204.763 76.124C204.28 75.82 203.829 75.6035 203.412 75.4755C202.996 75.3476 202.612 75.2831 202.261 75.2831C202.156 75.2831 202.036 75.2853 201.899 75.2907C201.761 75.2951 201.631 75.3148 201.508 75.3476C201.385 75.3804 201.283 75.4351 201.203 75.5116C201.122 75.5871 201.082 75.6921 201.082 75.8255C201.082 75.9589 201.181 76.077 201.38 76.182C201.579 76.287 201.807 76.3766 202.063 76.4532C202.32 76.5297 202.566 76.5888 202.803 76.6314C203.039 76.6741 203.191 76.7003 203.258 76.7102C203.599 76.7769 203.973 76.8742 204.381 77.0021C204.789 77.1301 205.17 77.3204 205.525 77.5719C205.881 77.8234 206.179 78.1514 206.421 78.555C206.663 78.9585 206.783 79.4648 206.783 80.0728C206.783 80.6425 206.684 81.1346 206.484 81.548C206.284 81.9614 206.007 82.3015 205.653 82.5672C205.297 82.8329 204.871 83.0309 204.373 83.1588C203.876 83.2867 203.324 83.3513 202.718 83.3513C202.225 83.3513 201.765 83.3108 201.339 83.2299C200.913 83.149 200.514 83.0374 200.145 82.8953C199.775 82.7531 199.431 82.5847 199.114 82.3889C198.797 82.1943 198.505 81.9876 198.24 81.7689C198.164 81.712 198.121 81.6333 198.113 81.5338C198.103 81.4343 198.127 81.3457 198.184 81.2702L199.278 79.6879C199.334 79.6124 199.411 79.5643 199.506 79.5457C199.6 79.5271 199.686 79.5413 199.762 79.5884L199.759 79.5862ZM196.335 83.1632H194.198C194.097 83.1632 194.014 83.1304 193.952 83.0637C193.891 82.997 193.859 82.916 193.859 82.8209V73.0872C193.859 72.9921 193.89 72.9112 193.952 72.8445C194.013 72.7778 194.097 72.7449 194.198 72.7449H196.335C196.43 72.7449 196.508 72.7778 196.574 72.8445C196.64 72.9112 196.673 72.9921 196.673 73.0872V82.8209C196.673 82.916 196.639 82.997 196.574 83.0637C196.507 83.1304 196.43 83.1632 196.335 83.1632ZM192.765 80.8831V82.8209C192.765 82.916 192.732 82.997 192.666 83.0637C192.599 83.1304 192.518 83.1632 192.424 83.1632H185.331C185.226 83.1632 185.143 83.1304 185.082 83.0637C185.021 82.997 184.989 82.916 184.989 82.8209V73.073C184.989 72.9779 185.02 72.897 185.082 72.8302C185.143 72.7635 185.226 72.7307 185.331 72.7307H187.463C187.558 72.7307 187.639 72.7646 187.705 72.8302C187.772 72.897 187.804 72.9779 187.804 73.073V80.1986C187.804 80.2937 187.835 80.3746 187.897 80.4413C187.958 80.508 188.042 80.5409 188.146 80.5409H192.425C192.52 80.5409 192.6 80.5747 192.667 80.6404C192.733 80.706 192.766 80.788 192.766 80.8831H192.765ZM170.733 77.947C170.733 78.3078 170.799 78.6501 170.932 78.9727C171.065 79.2953 171.248 79.5807 171.48 79.8279C171.712 80.075 171.985 80.2718 172.297 80.4195C172.61 80.5671 172.941 80.6404 173.292 80.6404C173.642 80.6404 173.974 80.5671 174.286 80.4195C174.599 80.2718 174.874 80.075 175.111 79.8279C175.347 79.5807 175.533 79.2953 175.665 78.9727C175.798 78.6501 175.863 78.3078 175.863 77.947C175.863 77.5861 175.797 77.2558 175.665 76.9278C175.532 76.5997 175.347 76.3154 175.111 76.0726C174.874 75.8299 174.599 75.6352 174.286 75.4887C173.973 75.341 173.642 75.2678 173.292 75.2678C172.941 75.2678 172.609 75.341 172.297 75.4887C171.984 75.6363 171.711 75.8309 171.48 76.0726C171.248 76.3154 171.065 76.5997 170.932 76.9278C170.799 77.2558 170.733 77.5948 170.733 77.947ZM167.919 77.947C167.919 77.2055 168.06 76.5078 168.345 75.8517C168.63 75.1956 169.014 74.6237 169.497 74.1348C169.98 73.6449 170.548 73.2578 171.203 72.9735C171.857 72.6881 172.553 72.5459 173.293 72.5459C174.032 72.5459 174.728 72.6881 175.382 72.9735C176.036 73.2589 176.607 73.646 177.095 74.1348C177.582 74.6237 177.968 75.1967 178.253 75.8517C178.538 76.5068 178.68 77.2055 178.68 77.947C178.68 78.6884 178.538 79.3861 178.253 80.0422C177.968 80.6983 177.582 81.2702 177.095 81.7591C176.606 82.249 176.036 82.6361 175.382 82.9204C174.728 83.2058 174.032 83.348 173.293 83.348C172.553 83.348 171.857 83.2058 171.203 82.9204C170.549 82.635 169.98 82.2479 169.497 81.7591C169.014 81.2702 168.63 80.6972 168.345 80.0422C168.06 79.3872 167.919 78.6884 167.919 77.947ZM160.385 80.5409H161.451C161.716 80.5409 161.991 80.508 162.275 80.4413C162.56 80.3746 162.815 80.2489 163.043 80.0641C163.271 79.8782 163.458 79.6179 163.605 79.28C163.752 78.9432 163.825 78.5036 163.825 77.9623C163.825 77.421 163.752 76.9814 163.605 76.6445C163.458 76.3077 163.269 76.0464 163.037 75.8605C162.804 75.6757 162.549 75.5488 162.269 75.4832C161.99 75.4165 161.717 75.3837 161.452 75.3837H160.386C160.291 75.3837 160.211 75.4165 160.144 75.4832C160.078 75.5499 160.045 75.6308 160.045 75.726V80.2008C160.045 80.2959 160.078 80.3768 160.144 80.4435C160.211 80.5102 160.291 80.543 160.386 80.543L160.385 80.5409ZM157.23 82.8209V73.073C157.23 72.9779 157.262 72.897 157.329 72.8302C157.396 72.7635 157.476 72.7307 157.57 72.7307H161.451C162.939 72.7307 164.157 73.1682 165.104 74.0419C165.615 74.5165 166.003 75.0819 166.27 75.738C166.535 76.393 166.668 77.1301 166.668 77.947C166.668 78.7638 166.535 79.5031 166.27 80.1636C166.004 80.8241 165.616 81.3916 165.104 81.8662C164.629 82.2938 164.087 82.6164 163.476 82.8351C162.865 83.0538 162.189 83.1632 161.451 83.1632H157.57C157.475 83.1632 157.394 83.1304 157.329 83.0637C157.262 82.997 157.23 82.916 157.23 82.8209ZM142.93 77.947C142.93 78.3078 142.996 78.6501 143.129 78.9727C143.262 79.2953 143.444 79.5807 143.677 79.8279C143.909 80.075 144.182 80.2718 144.494 80.4195C144.807 80.5671 145.138 80.6404 145.488 80.6404C145.838 80.6404 146.171 80.5671 146.483 80.4195C146.796 80.2718 147.071 80.075 147.308 79.8279C147.544 79.5807 147.73 79.2953 147.862 78.9727C147.995 78.6501 148.06 78.3078 148.06 77.947C148.06 77.5861 147.994 77.2558 147.862 76.9278C147.729 76.5997 147.544 76.3154 147.308 76.0726C147.071 75.8299 146.796 75.6352 146.483 75.4887C146.17 75.341 145.838 75.2678 145.488 75.2678C145.138 75.2678 144.806 75.341 144.494 75.4887C144.181 75.6363 143.908 75.8309 143.677 76.0726C143.444 76.3154 143.262 76.5997 143.129 76.9278C142.996 77.2558 142.93 77.5948 142.93 77.947ZM140.115 77.947C140.115 77.2055 140.257 76.5078 140.542 75.8517C140.827 75.1956 141.211 74.6237 141.694 74.1348C142.177 73.6449 142.745 73.2578 143.4 72.9735C144.054 72.6881 144.75 72.5459 145.489 72.5459C146.229 72.5459 146.925 72.6881 147.579 72.9735C148.233 73.2589 148.804 73.646 149.292 74.1348C149.779 74.6237 150.165 75.1967 150.45 75.8517C150.735 76.5068 150.876 77.2055 150.876 77.947C150.876 78.6884 150.735 79.3861 150.45 80.0422C150.165 80.6983 149.779 81.2702 149.292 81.7591C148.804 82.249 148.233 82.6361 147.579 82.9204C146.925 83.2058 146.229 83.348 145.489 83.348C144.75 83.348 144.054 83.2058 143.4 82.9204C142.746 82.635 142.177 82.2479 141.694 81.7591C141.211 81.2702 140.827 80.6972 140.542 80.0422C140.257 79.3872 140.115 78.6884 140.115 77.947ZM139.362 75.3531H137.371C137.276 75.3531 137.196 75.3859 137.129 75.4526C137.063 75.5193 137.03 75.6002 137.03 75.6953V82.8209C137.03 82.916 136.999 82.997 136.937 83.0637C136.876 83.1304 136.793 83.1632 136.688 83.1632H134.556C134.461 83.1632 134.381 83.1304 134.314 83.0637C134.247 82.997 134.215 82.916 134.215 82.8209V75.6953C134.215 75.6002 134.184 75.5193 134.122 75.4526C134.061 75.3859 133.977 75.3531 133.873 75.3531H131.856C131.761 75.3531 131.68 75.3192 131.613 75.2535C131.547 75.1868 131.514 75.1059 131.514 75.0108V73.073C131.514 72.9779 131.547 72.897 131.613 72.8302C131.68 72.7635 131.761 72.7307 131.856 72.7307H139.361C139.465 72.7307 139.548 72.7646 139.609 72.8302C139.67 72.897 139.702 72.9779 139.702 73.073V75.0108C139.702 75.1059 139.672 75.1868 139.609 75.2535C139.548 75.3203 139.465 75.3531 139.361 75.3531H139.362Z" fill="#5B5B5B"/>
<path fill-rule="evenodd" clip-rule="evenodd" d="M131.936 94.0691H137.304C137.898 94.0691 138.385 94.5568 138.385 95.1528V100.213C138.385 100.809 137.898 101.296 137.304 101.296H131.936C131.342 101.296 130.855 100.809 130.855 100.213V95.1528C130.855 94.5568 131.342 94.0691 131.936 94.0691Z" fill="#EFEFEF"/>
<path fill-rule="evenodd" clip-rule="evenodd" d="M144.474 96.277H213.604C214.374 96.277 215.007 96.9101 215.007 97.6833C215.007 98.4575 214.375 99.0896 213.604 99.0896H144.474C143.704 99.0896 143.071 98.4564 143.071 97.6833C143.071 96.9091 143.703 96.277 144.474 96.277Z" fill="#C4C4C4"/>
<path fill-rule="evenodd" clip-rule="evenodd" d="M131.936 107.723H137.304C137.898 107.723 138.385 108.211 138.385 108.807V113.867C138.385 114.463 137.898 114.95 137.304 114.95H131.936C131.342 114.95 130.855 114.463 130.855 113.867V108.807C130.855 108.211 131.342 107.723 131.936 107.723Z" fill="#EFEFEF"/>
<path fill-rule="evenodd" clip-rule="evenodd" d="M131.936 121.377H137.304C137.898 121.377 138.385 121.865 138.385 122.461V127.521C138.385 128.117 137.898 128.604 137.304 128.604H131.936C131.342 128.604 130.855 128.117 130.855 127.521V122.461C130.855 121.865 131.342 121.377 131.936 121.377Z" fill="#EFEFEF"/>
<path fill-rule="evenodd" clip-rule="evenodd" d="M131.936 135.03H137.304C137.898 135.03 138.385 135.518 138.385 136.114V141.174C138.385 141.77 137.898 142.257 137.304 142.257H131.936C131.342 142.257 130.855 141.77 130.855 141.174V136.114C130.855 135.518 131.342 135.03 131.936 135.03Z" fill="#EFEFEF"/>
<path fill-rule="evenodd" clip-rule="evenodd" d="M131.936 148.684H137.304C137.898 148.684 138.385 149.172 138.385 149.768V154.828C138.385 155.424 137.898 155.911 137.304 155.911H131.936C131.342 155.911 130.855 155.424 130.855 154.828V149.768C130.855 149.172 131.342 148.684 131.936 148.684Z" fill="#EFEFEF"/>
<path fill-rule="evenodd" clip-rule="evenodd" d="M131.936 162.337H137.304C137.898 162.337 138.385 162.825 138.385 163.421V168.481C138.385 169.077 137.898 169.564 137.304 169.564H131.936C131.342 169.564 130.855 169.077 130.855 168.481V163.421C130.855 162.825 131.342 162.337 131.936 162.337Z" fill="#EFEFEF"/>
<path fill-rule="evenodd" clip-rule="evenodd" d="M144.474 109.931H213.604C214.374 109.931 215.007 110.564 215.007 111.337C215.007 112.112 214.375 112.744 213.604 112.744H144.474C143.704 112.744 143.071 112.11 143.071 111.337C143.071 110.563 143.703 109.931 144.474 109.931Z" fill="#C4C4C4"/>
<path fill-rule="evenodd" clip-rule="evenodd" d="M144.474 123.584H213.604C214.374 123.584 215.007 124.217 215.007 124.99C215.007 125.764 214.375 126.397 213.604 126.397H144.474C143.704 126.397 143.071 125.763 143.071 124.99C143.071 124.216 143.703 123.584 144.474 123.584Z" fill="#C4C4C4"/>
<path fill-rule="evenodd" clip-rule="evenodd" d="M144.474 137.238H213.604C214.374 137.238 215.007 137.871 215.007 138.644C215.007 139.419 214.375 140.051 213.604 140.051H144.474C143.704 140.051 143.071 139.417 143.071 138.644C143.071 137.87 143.703 137.238 144.474 137.238Z" fill="#C4C4C4"/>
<path fill-rule="evenodd" clip-rule="evenodd" d="M144.474 150.891H213.604C214.374 150.891 215.007 151.524 215.007 152.297C215.007 153.071 214.375 153.704 213.604 153.704H144.474C143.704 153.704 143.071 153.07 143.071 152.297C143.071 151.523 143.703 150.891 144.474 150.891Z" fill="#C4C4C4"/>
<path fill-rule="evenodd" clip-rule="evenodd" d="M144.474 164.545H213.604C214.374 164.545 215.007 165.178 215.007 165.951C215.007 166.725 214.375 167.358 213.604 167.358H144.474C143.704 167.358 143.071 166.724 143.071 165.951C143.071 165.177 143.703 164.545 144.474 164.545Z" fill="#C4C4C4"/>
<path fill-rule="evenodd" clip-rule="evenodd" d="M133.852 125.853L138.424 121.578C138.78 121.246 139.341 121.267 139.673 121.624C140.004 121.982 139.985 122.544 139.627 122.878L134.381 127.779L134.367 127.79C134.002 128.11 133.441 128.073 133.122 127.707L130.595 124.807C130.274 124.44 130.312 123.877 130.678 123.557C131.043 123.236 131.604 123.273 131.923 123.64L133.85 125.854L133.852 125.853Z" fill="#7EBB4F"/>
<path fill-rule="evenodd" clip-rule="evenodd" d="M207.836 0C219.21 0 228.43 9.24375 228.43 20.6473C228.43 32.0508 219.21 41.2945 207.836 41.2945C196.462 41.2945 187.243 32.0508 187.243 20.6473C187.243 9.24375 196.461 0 207.836 0Z" fill="#C1DDAA"/>
<path fill-rule="evenodd" clip-rule="evenodd" d="M207.836 5.00517C216.453 5.00517 223.438 12.0082 223.438 20.6473C223.438 29.2863 216.453 36.2894 207.836 36.2894C199.22 36.2894 192.235 29.2863 192.235 20.6473C192.235 12.0082 199.22 5.00517 207.836 5.00517Z" fill="white"/>
<path fill-rule="evenodd" clip-rule="evenodd" d="M207.836 9.69867C213.868 9.69867 218.758 14.601 218.758 20.6484C218.758 26.6957 213.868 31.598 207.836 31.598C201.805 31.598 196.915 26.6957 196.915 20.6484C196.915 14.601 201.805 9.69867 207.836 9.69867Z" fill="#C1DDAA"/>
<path fill-rule="evenodd" clip-rule="evenodd" d="M207.836 14.5475C211.197 14.5475 213.921 17.2791 213.921 20.6484C213.921 24.0176 211.197 26.7493 207.836 26.7493C204.476 26.7493 201.751 24.0176 201.751 20.6484C201.751 17.2791 204.476 14.5475 207.836 14.5475Z" fill="white"/>
<path fill-rule="evenodd" clip-rule="evenodd" d="M208.156 21.3078L209.972 21.3624L209.157 20.2383L232.783 4.39825C232.918 3.70494 232.448 2.48454 231.241 2.25162L208.774 19.7134L207.945 18.5553L207.368 20.247L208.156 21.3067V21.3078Z" fill="#7EBB4F"/>
<path fill-rule="evenodd" clip-rule="evenodd" d="M133.852 97.8637L138.424 93.589C138.78 93.2566 139.341 93.2774 139.673 93.635C140.004 93.9926 139.985 94.5546 139.627 94.8882L134.381 99.7895L134.367 99.8004C134.002 100.121 133.441 100.084 133.122 99.7173L130.595 96.8172C130.274 96.4509 130.312 95.8877 130.678 95.5673C131.043 95.2469 131.604 95.284 131.923 95.6504L133.85 97.8648L133.852 97.8637Z" fill="#7EBB4F"/>
<path fill-rule="evenodd" clip-rule="evenodd" d="M133.852 111.718L138.424 107.443C138.78 107.111 139.341 107.132 139.673 107.489C140.004 107.847 139.985 108.409 139.627 108.742L134.381 113.644L134.367 113.655C134.002 113.975 133.441 113.938 133.122 113.571L130.595 110.671C130.274 110.305 130.312 109.742 130.678 109.421C131.043 109.101 131.604 109.138 131.923 109.505L133.85 111.719L133.852 111.718Z" fill="#7EBB4F"/>
</g>
<path d="M63.8255 136.786C66.4111 133.986 65.3343 130.025 65.0803 128.8C64.7414 127.164 63.9877 125.378 63.8516 123.998C63.747 122.94 64.0533 121.099 64.5629 120.167L65.0808 112.356C63.859 111.652 62.1163 112.087 61.3666 113.281C60.608 114.489 60.8847 116.041 60.8472 117.467C60.7698 120.421 59.1164 123.287 56.5988 124.831C55.749 125.353 54.8182 125.727 53.9382 126.197C52.2518 127.096 50.7331 128.376 49.7638 130.024C48.7946 131.672 48.4163 133.71 48.9579 135.544C49.4995 137.378 51.649 139.175 53.5244 139.543C53.5244 139.543 60.4358 140.456 63.8255 136.786Z" fill="white"/>
<path d="M55.2085 139.739C55.8591 139.739 56.6502 139.709 57.4991 139.61C59.5131 139.375 62.2748 138.694 63.9918 136.785C65.5702 135.029 66.0186 132.547 65.3246 129.406C65.1307 128.53 64.8841 127.736 64.6453 126.969C64.3898 126.146 64.1482 125.369 64.0337 124.656C63.8088 123.258 64.197 121.089 64.669 120.226C64.7011 120.167 64.6794 120.093 64.6212 120.061C64.5625 120.029 64.489 120.051 64.4569 120.11C63.9568 121.025 63.5587 123.227 63.795 124.695C63.9124 125.425 64.1565 126.209 64.4145 127.04C64.6518 127.803 64.8964 128.592 65.0883 129.458C65.7645 132.518 65.3354 134.928 63.8122 136.622C62.147 138.474 59.4475 139.138 57.4764 139.368C55.3836 139.613 53.6458 139.435 53.5427 139.423C51.6348 139.046 49.5893 137.255 49.0739 135.51C48.5649 133.786 48.8544 131.809 49.868 130.086C50.7539 128.579 52.1809 127.272 53.9951 126.303C54.3369 126.121 54.694 125.949 55.0388 125.783C55.5799 125.523 56.1392 125.255 56.6616 124.934C57.9139 124.166 58.9789 123.061 59.7419 121.738C60.505 120.415 60.9287 118.939 60.9672 117.47C60.976 117.136 60.9672 116.79 60.9593 116.455C60.9326 115.367 60.905 114.242 61.4678 113.345C62.1875 112.199 63.8468 111.786 65.0192 112.46C65.0769 112.494 65.1509 112.474 65.1845 112.416C65.2175 112.358 65.1978 112.284 65.1401 112.251C63.8601 111.514 62.0484 111.966 61.2636 113.217C60.6618 114.175 60.6905 115.337 60.7181 116.461C60.726 116.793 60.7344 117.136 60.726 117.464C60.65 120.362 59.005 123.213 56.5353 124.728C56.0233 125.042 55.4694 125.308 54.9342 125.565C54.587 125.732 54.2279 125.905 53.8816 126.09C52.028 127.079 50.5684 128.418 49.6599 129.963C48.6122 131.744 48.3143 133.791 48.8421 135.578C49.3802 137.401 51.514 139.271 53.5013 139.662C53.5048 139.663 53.5077 139.663 53.5112 139.664C53.522 139.665 54.1938 139.739 55.209 139.739H55.2085Z" fill="black"/>
<path d="M56.445 152.116C56.445 152.116 58.8432 152.585 60.3234 154.107C60.243 154.251 63.0131 155.375 62.6525 156.386C62.5608 156.468 60.9296 156.963 58.7307 155.385L51.5085 154.509C51.5085 154.509 47.9956 148.937 47.5768 146.422C47.5595 146.356 45.2018 141 50.1466 137.519C49.9528 137.535 55.4738 133.578 55.4738 133.578C55.4738 133.578 57.575 139.353 59.6624 140.747C59.6373 140.757 55.2405 142.358 54.3783 143.664C54.2081 143.704 56.4455 152.116 56.4455 152.116H56.445Z" fill="white"/>
<path d="M62.135 156.679C62.1991 156.679 62.2607 156.677 62.3209 156.673C62.5962 156.653 62.8161 156.467 62.8817 156.199C62.9473 155.931 62.8383 155.665 62.6045 155.52C62.2652 155.309 61.9485 155.108 61.6639 154.92C61.6082 154.884 61.5332 154.899 61.4962 154.955C61.4597 155.011 61.475 155.086 61.5307 155.123C61.8173 155.311 62.1355 155.514 62.4768 155.726C62.6509 155.833 62.6785 156.011 62.6465 156.141C62.6144 156.271 62.5074 156.417 62.3032 156.431C61.5667 156.486 60.4821 156.18 59.0803 155.523C59.0196 155.495 58.9476 155.521 58.9195 155.581C58.8913 155.642 58.9175 155.714 58.9777 155.742C60.307 156.364 61.3675 156.679 62.135 156.679Z" fill="black"/>
<path d="M61.5974 155.143C61.6369 155.143 61.6754 155.124 61.6986 155.088C61.7351 155.032 61.7198 154.957 61.664 154.92C60.8985 154.417 60.3855 154.032 60.1813 153.808C60.1779 153.804 60.1749 153.801 60.171 153.798C58.1792 152.074 56.9012 151.973 56.5322 151.987C56.2565 151.074 54.0768 143.799 54.1454 142.23C54.1484 142.163 54.0966 142.106 54.03 142.103C53.9634 142.101 53.9067 142.152 53.9037 142.219C53.8297 143.927 56.2274 151.815 56.3295 152.15C56.3473 152.209 56.406 152.245 56.4661 152.234C56.4785 152.232 57.7767 152.047 60.0077 153.976C60.2311 154.219 60.7441 154.605 61.5318 155.122C61.5521 155.136 61.5752 155.142 61.5979 155.142L61.5974 155.143Z" fill="black"/>
<path d="M87.1862 217.442L88.0248 223.007L92.0107 224.363C92.0107 224.363 89.1864 227.363 79.1951 223.848L78.7354 218.331L87.1862 217.442V217.442Z" fill="white"/>
<path d="M64.9282 179.288C65.5211 189.977 68.597 199.031 72.1913 218.627C75.4083 218.802 87.9734 217.571 87.8639 217.064C87.8639 217.064 85.1663 192.251 84.3046 183.918C82.6187 167.621 78.2731 152.302 78.2731 152.302L69.1677 151.606L64.9282 179.287V179.288Z" fill="white"/>
<path d="M72.9337 218.765C74.8451 218.765 78.2327 218.519 81.0433 218.246C82.8264 218.072 84.4709 217.88 85.6744 217.705C87.753 217.402 87.8866 217.245 87.9434 217.179C87.9759 217.14 87.9902 217.095 87.9838 217.049C87.9596 216.748 87.0229 205.191 85.3923 191.57C84.4265 183.503 83.4094 176.302 82.3701 170.165C81.0699 162.491 79.7302 156.469 78.3881 152.266C78.3679 152.203 78.2993 152.168 78.2362 152.188C78.1725 152.208 78.1375 152.276 78.1577 152.34C81.1907 161.837 83.6353 178.93 85.152 191.598C86.7487 204.933 87.6795 216.289 87.7401 217.036C87.4348 217.225 85.0568 217.614 80.9688 218.01C77.8282 218.315 73.9636 218.584 72.2925 218.511C71.6631 215.138 71.0598 211.97 70.4763 208.905C67.8971 195.36 65.86 184.661 65.3756 175.924C65.3717 175.858 65.314 175.806 65.2484 175.81C65.1818 175.814 65.1305 175.871 65.1344 175.938C65.6198 184.69 67.6584 195.396 70.2391 208.95C70.828 212.043 71.4372 215.241 72.073 218.649C72.0834 218.703 72.1297 218.744 72.1855 218.747C72.3976 218.759 72.6501 218.765 72.9342 218.765H72.9337Z" fill="black"/>
<path d="M92.0113 224.363C92.0113 224.363 91.3366 226.894 79.2124 224.021L79.7604 229.586C79.7604 229.586 98.1094 230.201 97.9797 229.68C97.6571 228.387 96.4387 226.132 92.0108 224.363L92.0113 224.363Z" fill="black"/>
<path d="M91.85 229.915C97.8218 229.915 97.9969 229.695 98.0778 229.593C98.1089 229.554 98.1197 229.506 98.1079 229.459C97.8509 228.438 97.1579 227.457 96.0476 226.542C95.1671 225.817 94.0233 225.13 92.6466 224.502C90.5572 223.547 88.5511 223.015 88.1324 222.908L87.3057 217.423C87.2958 217.357 87.2346 217.312 87.1681 217.322C87.102 217.332 87.0566 217.393 87.0664 217.459L87.905 223.024C87.9124 223.073 87.9484 223.113 87.9962 223.124C88.0184 223.129 90.2321 223.664 92.5489 224.723C94.6507 225.683 97.2659 227.28 97.8558 229.453C97.5831 229.552 96.0717 229.728 88.5862 229.655C84.5647 229.615 80.5723 229.521 79.8748 229.504L78.7897 218.515C78.7833 218.449 78.7241 218.4 78.6575 218.407C78.5909 218.413 78.5426 218.472 78.549 218.539L79.6445 229.634C79.6504 229.695 79.7007 229.742 79.7619 229.744C79.8063 229.745 84.2584 229.856 88.7075 229.898C89.9017 229.909 90.9429 229.914 91.8495 229.914L91.85 229.915Z" fill="black"/>
<path d="M87.9957 225.558C88.6744 225.558 89.2308 225.511 89.6816 225.444C91.5604 225.162 92.0877 224.464 92.1089 224.434C92.1484 224.38 92.1361 224.305 92.0823 224.265C92.0285 224.226 91.9531 224.237 91.9136 224.291C91.9042 224.304 91.3903 224.954 89.5928 225.212C87.9173 225.453 84.759 225.392 79.2301 223.732C79.166 223.712 79.0984 223.749 79.0797 223.812C79.0604 223.877 79.097 223.944 79.1606 223.963C83.2871 225.202 86.113 225.557 87.9957 225.557V225.558Z" fill="black"/>
<path d="M71.4151 213.999C71.4185 213.999 71.422 213.999 71.4259 213.999L87.282 212.612C87.3486 212.606 87.3979 212.547 87.392 212.481C87.3861 212.414 87.3288 212.364 87.2608 212.37L71.4047 213.757C71.3381 213.763 71.2888 213.822 71.2947 213.889C71.3001 213.952 71.3529 213.999 71.4151 213.999V213.999Z" fill="black"/>
<path d="M56.0275 218.381L56.1596 223.71C56.1596 223.71 63.8401 227.686 68.8949 224.861L65.0367 223.178L64.9597 218.627L56.027 218.381H56.0275Z" fill="white"/>
<path d="M68.895 224.861C68.895 224.861 64.8237 227.656 56.1597 223.711L56.3131 229.89C56.3131 229.89 74.5476 231.132 74.4569 230.604C74.2305 229.29 73.1808 226.952 68.8955 224.862L68.895 224.861Z" fill="black"/>
<path d="M72.408 230.713C74.3928 230.713 74.5019 230.591 74.5625 230.523C74.5956 230.486 74.6094 230.44 74.601 230.393C74.42 229.357 73.8009 228.327 72.7607 227.333C71.936 226.544 70.8454 225.775 69.519 225.047C67.514 223.946 65.5607 223.268 65.1394 223.128L65.0812 218.626C65.0803 218.56 65.0265 218.507 64.9604 218.507H64.9589C64.8923 218.508 64.8386 218.563 64.8395 218.629L64.8992 223.217C64.8997 223.269 64.9338 223.315 64.9836 223.331C65.0053 223.338 67.1736 224.035 69.4066 225.261C71.4328 226.374 73.9252 228.16 74.3519 230.372C74.0846 230.463 72.589 230.588 65.1034 230.242C61.1056 230.058 57.1384 229.819 56.4321 229.776L56.1494 218.378C56.148 218.312 56.0942 218.257 56.0256 218.26C55.959 218.262 55.9063 218.318 55.9078 218.384L56.1933 229.893C56.1948 229.956 56.2441 230.007 56.3068 230.011C56.3512 230.014 60.7781 230.286 65.2075 230.49C68.8521 230.657 71.0624 230.713 72.4095 230.713L72.408 230.713Z" fill="black"/>
<path d="M64.2554 225.975C65.7776 225.975 67.4024 225.713 68.9472 224.97C69.0074 224.941 69.0326 224.869 69.004 224.808C68.9748 224.748 68.9028 224.723 68.8427 224.752C65.8851 226.175 62.6144 225.789 60.3913 225.215C57.9739 224.591 56.2366 223.614 56.2194 223.605C56.1612 223.572 56.0877 223.593 56.0546 223.65C56.0216 223.709 56.0423 223.782 56.1 223.815C56.1173 223.825 57.8777 224.815 60.3247 225.448C61.4325 225.734 62.7969 225.974 64.2554 225.974V225.975Z" fill="black"/>
<path d="M73.8286 160.966C72.8554 162.1 72.4204 163.703 72.1841 165.003C71.1409 170.746 67.809 218.643 67.809 218.643L50.815 217.906L53.08 185.884C53.08 185.884 55.236 154.233 64.6201 149.411L74.4896 150.291L73.8281 160.966H73.8286Z" fill="white"/>
<path d="M67.8089 218.765C67.8721 218.765 67.9253 218.716 67.9298 218.652C67.9633 218.174 71.273 170.696 72.3029 165.025C72.6275 163.237 73.1568 161.935 73.9203 161.045C73.9637 160.995 73.9578 160.918 73.9075 160.875C73.8567 160.831 73.7802 160.837 73.7368 160.887C72.9447 161.811 72.3976 163.15 72.0652 164.981C71.0575 170.528 67.8805 215.885 67.6965 218.52L50.9259 218.057L53.2008 185.893C53.2052 185.821 53.6492 178.735 55.1575 170.815C56.0429 166.166 57.1162 162.145 58.3479 158.863C59.8829 154.771 61.6675 151.826 63.6523 150.11C63.7026 150.066 63.7085 149.99 63.6646 149.939C63.6207 149.888 63.5448 149.883 63.494 149.927C61.4785 151.67 59.6708 154.648 58.121 158.779C56.8844 162.075 55.8076 166.11 54.9198 170.772C53.409 178.707 52.964 185.806 52.9601 185.877L50.6763 218.166C50.6739 218.199 50.6852 218.231 50.7074 218.256C50.7296 218.281 50.7607 218.295 50.7937 218.295L67.8065 218.765C67.8065 218.765 67.8089 218.765 67.8099 218.765H67.8089Z" fill="black"/>
<path d="M68.1547 213.446C68.2203 213.446 68.2741 213.394 68.2755 213.327C68.277 213.261 68.2237 213.206 68.1572 213.204L51.1646 212.878C51.1646 212.878 51.1632 212.878 51.1622 212.878C51.0966 212.878 51.0428 212.931 51.0413 212.997C51.0399 213.064 51.0931 213.119 51.1597 213.121L68.1522 213.446C68.1522 213.446 68.1537 213.446 68.1547 213.446Z" fill="black"/>
<path d="M90.7353 131.094C90.7353 131.094 90.4724 129.493 90.8872 127.785C90.8418 127.95 91.2882 124.559 91.9403 124.526C91.9403 124.546 92.7926 124.71 92.7606 126.64C92.7887 126.821 94.4598 124.646 95.0813 123.33C95.1627 123.152 95.7995 121.333 96.492 121.77C96.5872 121.854 96.3214 124.345 95.4488 125.574C95.4858 125.504 96.5384 125.054 97.5954 122.869C97.7385 122.603 98.5538 120.742 98.9834 122.644C98.9775 122.732 99.9226 122.805 100.048 123.621C100.019 123.538 100.12 125.236 99.7396 126.068C99.5763 125.872 100.8 124.708 101.112 125.361C101.058 125.384 101.071 129.06 95.9351 132.595C95.9351 132.595 92.951 142.218 92.3038 143.819C92.3211 143.776 89.5219 152.302 85.4195 151.535C85.1665 151.498 81.0163 151.005 79.0447 144.187C79.0719 144.152 85.1073 139.232 85.1073 139.232L85.9424 141.015L90.7353 131.093V131.094Z" fill="white"/>
<path d="M77.8669 117.322C77.8669 117.322 79.2081 125.019 74.5503 125.231L73.0449 124.983C73.0449 124.983 72.2912 128.936 76.074 129.547C76.0883 129.759 80.0654 129.622 81.2107 131.413C80.8225 131.525 71.7368 134.831 60.5967 130.428C60.5967 130.428 61.9892 129.237 65.0893 128.845C65.0799 128.801 68.1982 129.469 68.1963 126.895C68.0078 126.822 68.1913 120.55 68.1913 120.55C68.1913 120.55 66.2923 120.86 66.2805 118.366C66.3066 118.208 66.8122 116.247 68.9859 117.528C68.9859 117.528 73.0257 117.613 74.2351 112.582C74.1128 112.555 77.9513 113.007 77.8664 117.322L77.8669 117.322Z" fill="white"/>
<path d="M81.3492 131.38C81.3492 131.38 83.7262 133.464 85.2242 139.706C85.058 139.88 81.0947 143.57 79.0442 144.188C79.0442 144.188 77.8294 150.662 78.2733 152.303C77.6843 152.657 68.0324 154.74 63.5729 150.017C63.5729 150.017 64.224 142.26 63.2173 139.508L59.6619 140.661C59.6619 140.661 55.9098 137.088 55.4732 133.577L60.5971 130.427C60.5971 130.427 69.2369 134.285 81.3492 131.379V131.38Z" fill="black"/>
<path d="M68.1939 122.703C60.581 120.55 63.3255 109.862 70.5161 109.18C78.0747 108.464 81.9398 114.539 77.9529 118.212C77.9529 118.212 78.2986 113.146 74.2357 112.581C74.547 112.656 72.6859 117.719 68.8435 117.72C68.9703 117.701 66.2914 115.567 66.2623 118.982C66.0882 119.207 66.7457 120.732 68.1924 120.549C68.1924 120.658 68.1939 122.702 68.1939 122.702V122.703Z" fill="white"/>
<path d="M74.491 125.354C74.526 125.354 74.5482 125.353 74.5551 125.353C75.5633 125.332 76.3747 124.96 76.9637 124.245C78.509 122.372 78.2486 118.573 77.7583 115.715C77.747 115.649 77.6848 115.605 77.6187 115.616C77.5531 115.628 77.5087 115.69 77.5201 115.756C77.9147 118.055 78.3428 122.194 76.7777 124.091C76.2357 124.748 75.4854 125.091 74.5482 125.111C74.4683 125.114 72.6438 125.17 71.0856 123.672C71.0373 123.625 70.9608 123.627 70.9145 123.675C70.8681 123.724 70.8696 123.8 70.9179 123.847C72.4041 125.276 74.1334 125.354 74.4915 125.354L74.491 125.354Z" fill="black"/>
<path d="M68.029 120.664C68.2569 120.664 68.5035 120.639 68.7684 120.587C68.834 120.575 68.8769 120.511 68.8645 120.446C68.8517 120.38 68.7881 120.337 68.723 120.35C67.8918 120.509 67.2694 120.403 66.8728 120.035C66.3169 119.518 66.3712 118.637 66.4012 118.38C66.4313 118.121 66.5196 117.874 66.6572 117.666C66.8511 117.372 67.0918 117.208 67.3724 117.179C68.0447 117.109 68.7511 117.799 68.758 117.806C68.8053 117.852 68.8818 117.852 68.9292 117.805C68.976 117.757 68.9755 117.68 68.9282 117.633C68.8961 117.602 68.1321 116.856 67.3473 116.938C66.9907 116.976 66.6908 117.176 66.455 117.533C66.2967 117.772 66.1951 118.056 66.1605 118.351C66.1275 118.638 66.0683 119.618 66.7075 120.212C67.0311 120.512 67.4736 120.663 68.0285 120.663L68.029 120.664Z" fill="black"/>
<path d="M68.7412 119.573C68.7412 119.573 68.7437 119.573 68.7447 119.573C68.8113 119.571 68.864 119.515 68.8621 119.449C68.8601 119.38 68.8591 119.349 68.0378 118.618C67.6506 118.274 67.2585 117.935 67.2546 117.931C67.2038 117.887 67.1278 117.893 67.0839 117.944C67.0405 117.994 67.0459 118.071 67.0962 118.114C67.1002 118.118 67.4913 118.456 67.877 118.799C68.4808 119.336 68.6051 119.468 68.6307 119.501C68.6495 119.543 68.6924 119.573 68.7412 119.573V119.573Z" fill="black"/>
<path d="M67.5827 119.378C67.6212 119.378 67.6592 119.36 67.6829 119.325L68.0577 118.777C68.0952 118.722 68.0814 118.647 68.0262 118.609C67.9714 118.572 67.896 118.585 67.858 118.641L67.4831 119.189C67.4456 119.244 67.4594 119.319 67.5147 119.357C67.5354 119.371 67.5596 119.378 67.5827 119.378Z" fill="black"/>
<path d="M71.6648 117.855C71.6875 117.855 71.7106 117.848 71.7308 117.835C72.8412 117.106 73.8306 117.607 73.8726 117.628C73.9317 117.659 74.0047 117.636 74.0358 117.577C74.0669 117.518 74.0442 117.445 73.985 117.414C73.9387 117.389 72.8308 116.822 71.5982 117.632C71.5424 117.669 71.5266 117.744 71.5636 117.8C71.5868 117.836 71.6253 117.855 71.6648 117.855Z" fill="black"/>
<path d="M75.8673 121.696C75.8905 121.696 75.9137 121.69 75.9344 121.676C75.9374 121.674 76.2486 121.467 76.5431 121.257C76.7054 121.142 76.807 120.962 76.8223 120.763C76.8371 120.567 76.766 120.377 76.6265 120.24C76.0168 119.646 75.6488 118.895 75.6414 118.233C75.6533 117.788 75.7919 117.463 76.0533 117.271C76.5406 116.914 77.3096 117.117 77.3175 117.119C77.3816 117.137 77.4482 117.099 77.466 117.034C77.4837 116.97 77.4457 116.904 77.3811 116.886C77.3451 116.876 76.4928 116.649 75.9103 117.076C75.5852 117.314 75.4136 117.703 75.3992 118.231C75.4071 118.962 75.8027 119.776 76.4573 120.415C76.5456 120.5 76.5904 120.621 76.5811 120.745C76.5712 120.872 76.5061 120.987 76.4025 121.061C76.111 121.269 75.8032 121.473 75.8003 121.476C75.7445 121.513 75.7297 121.588 75.7667 121.644C75.7899 121.679 75.8284 121.697 75.8673 121.697V121.696Z" fill="black"/>
<path d="M72.4806 119.044C72.4845 119.371 72.6394 119.635 72.8268 119.633C73.0138 119.63 73.1622 119.363 73.1578 119.035C73.1539 118.708 72.9985 118.445 72.8115 118.447C72.6246 118.449 72.4761 118.716 72.4806 119.044Z" fill="black"/>
<path d="M76.438 118.575C76.4419 118.902 76.5968 119.166 76.7842 119.164C76.9712 119.161 77.1196 118.894 77.1152 118.567C77.1113 118.239 76.9559 117.976 76.7689 117.978C76.582 117.98 76.4335 118.247 76.438 118.575Z" fill="black"/>
<path d="M68.1938 122.824C68.2466 122.824 68.2949 122.789 68.3102 122.736C68.3284 122.672 68.291 122.605 68.2268 122.586C65.1707 121.722 63.5138 119.359 63.7945 116.265C64.0751 113.172 66.5301 109.68 70.5279 109.301C74.4152 108.933 77.7274 110.334 78.9654 112.871C79.8478 114.679 79.469 116.654 77.9251 118.291C77.8793 118.339 77.8817 118.416 77.9301 118.462C77.9784 118.508 78.0554 118.506 78.1012 118.457C78.921 117.588 79.4256 116.629 79.6012 115.608C79.7664 114.647 79.6219 113.664 79.1824 112.764C78.592 111.555 77.4768 110.525 76.0429 109.865C74.4753 109.144 72.5601 108.866 70.5047 109.06C68.6224 109.239 66.9409 110.092 65.6422 111.528C64.4515 112.844 63.7096 114.519 63.5533 116.243C63.4201 117.713 63.7289 119.084 64.4461 120.21C65.2387 121.454 66.5231 122.356 68.1607 122.819C68.1716 122.822 68.1829 122.824 68.1938 122.824V122.824Z" fill="black"/>
<path d="M72.1329 153.19C73.9861 153.19 76.0429 152.934 78.3005 152.421C78.3617 152.407 78.4016 152.349 78.3937 152.287C78.1402 150.364 78.9832 144.503 79.4503 142.974C80.7401 140.912 80.6676 139.347 80.3791 138.397C80.0634 137.357 79.4419 136.819 79.4158 136.796C79.365 136.753 79.2885 136.758 79.2451 136.81C79.2017 136.861 79.2081 136.937 79.2589 136.981C79.2648 136.986 79.8592 137.504 80.1517 138.481C80.5389 139.774 80.2227 141.288 79.2367 142.859C79.2313 142.868 79.2269 142.878 79.2234 142.887C78.7612 144.381 77.9266 150.151 78.1402 152.209C71.5228 153.693 66.6632 152.94 63.6949 149.969C63.7087 149.402 63.7363 148.748 63.7659 148.056C63.8917 145.075 64.0638 140.992 63.3333 138.624C63.3136 138.561 63.2455 138.525 63.1819 138.544C63.1182 138.564 63.0822 138.632 63.102 138.696C63.8206 141.023 63.649 145.082 63.5242 148.046C63.4941 148.76 63.4655 149.434 63.4522 150.015C63.4512 150.048 63.464 150.08 63.4872 150.103C65.5184 152.159 68.4148 153.19 72.1329 153.19Z" fill="black"/>
<path d="M85.8896 141.247C85.9069 141.247 85.9241 141.243 85.9409 141.235C86.0016 141.207 86.0272 141.135 85.9991 141.075C85.4699 139.948 85.0664 138.708 84.6762 137.51C84.1336 135.842 83.6207 134.266 82.7915 132.933C81.8573 131.43 80.634 130.477 79.0517 130.02C78.6127 129.893 77.3095 129.65 77.2543 129.64C76.9124 129.568 76.5425 129.5 76.0936 129.428C75.1057 129.267 72.8431 128.515 73.1657 124.995C73.1716 124.928 73.1228 124.869 73.0562 124.863C72.9901 124.857 72.9309 124.906 72.9245 124.973C72.776 126.592 73.1415 127.839 74.0111 128.678C74.7239 129.365 75.5974 129.593 76.0547 129.667C76.4996 129.739 76.8661 129.806 77.2069 129.878C77.2232 129.881 78.5564 130.129 78.9846 130.253C82.3791 131.234 83.3834 134.319 84.4464 137.585C84.839 138.791 85.2444 140.037 85.7806 141.178C85.8013 141.222 85.8447 141.247 85.8901 141.247L85.8896 141.247Z" fill="black"/>
<path d="M49.3892 138.129C49.4178 138.129 49.4464 138.119 49.4691 138.098C50.5483 137.142 53.9148 134.636 57.7138 132.291C57.8504 132.207 57.9865 132.122 58.1232 132.038C60.5978 130.506 63.1563 128.921 65.9116 128.921C65.9782 128.921 66.0325 128.867 66.0325 128.8C66.0325 128.734 65.9782 128.679 65.9116 128.679C63.0873 128.679 60.4992 130.282 57.9959 131.832C57.8598 131.916 57.7231 132.001 57.587 132.085C53.7761 134.437 50.3944 136.955 49.3093 137.917C49.2595 137.961 49.2545 138.038 49.2989 138.088C49.3226 138.115 49.3561 138.129 49.3897 138.129H49.3892Z" fill="black"/>
<path d="M54.3778 143.694C54.4064 143.694 54.435 143.683 54.4582 143.663C55.9039 142.373 58.7811 141.051 63.2544 139.624C63.318 139.604 63.353 139.535 63.3328 139.472C63.3125 139.408 63.2445 139.373 63.1809 139.393C58.6124 140.851 55.7895 142.151 54.2974 143.482C54.2476 143.527 54.2431 143.603 54.2875 143.653C54.3112 143.68 54.3448 143.694 54.3778 143.694Z" fill="black"/>
<path d="M65.9115 128.922C65.9115 128.922 65.916 128.922 65.9185 128.922C65.9796 128.918 66.0467 128.916 66.1182 128.914C66.8734 128.889 68.2787 128.841 68.3176 127.103L68.3127 120.55C68.3127 120.484 68.2584 120.429 68.1918 120.429C68.1253 120.429 68.071 120.484 68.071 120.55L68.0759 127.1C68.0424 128.607 66.8793 128.646 66.1103 128.671C66.0363 128.674 65.9678 128.676 65.9051 128.68C65.8385 128.684 65.7872 128.741 65.7912 128.808C65.7946 128.872 65.8484 128.922 65.912 128.922H65.9115Z" fill="black"/>
<path d="M68.8434 117.841C68.8488 117.841 68.8542 117.841 68.8602 117.84C71.3979 117.49 72.7573 116.083 73.4508 114.965C74.2011 113.755 74.3496 112.644 74.3555 112.597C74.3639 112.531 74.317 112.47 74.2509 112.462C74.1848 112.453 74.1241 112.5 74.1157 112.566C74.1143 112.577 73.9658 113.68 73.2402 114.845C72.271 116.403 70.7858 117.33 68.8271 117.6C68.761 117.61 68.7146 117.67 68.724 117.736C68.7324 117.797 68.7842 117.841 68.8439 117.841H68.8434Z" fill="black"/>
<path d="M77.6392 115.857C77.6451 115.857 77.6515 115.857 77.6574 115.855C77.7235 115.845 77.7689 115.784 77.7585 115.718C77.5889 114.605 76.9279 113.689 75.8472 113.068C75.0373 112.603 74.288 112.468 74.2565 112.462C74.1904 112.451 74.1282 112.495 74.1164 112.561C74.105 112.626 74.1489 112.689 74.2145 112.701C74.2219 112.702 74.9593 112.835 75.7332 113.282C76.7587 113.873 77.3595 114.705 77.5193 115.754C77.5282 115.814 77.58 115.857 77.6387 115.857H77.6392Z" fill="black"/>
<path d="M85.4191 142.223C85.464 142.223 85.5074 142.198 85.5281 142.154C86.7627 139.591 90.8034 131.231 90.8438 131.147C90.873 131.087 90.8478 131.014 90.7876 130.985C90.7274 130.956 90.6549 130.981 90.6263 131.041C90.5854 131.126 86.5452 139.485 85.3101 142.048C85.281 142.109 85.3061 142.181 85.3663 142.21C85.3831 142.218 85.4013 142.222 85.4186 142.222L85.4191 142.223Z" fill="black"/>
<path d="M85.8418 151.681C86.5867 151.681 87.3354 151.469 88.0398 151.052C88.935 150.523 89.7001 149.703 90.253 148.681C93.249 143.142 96.024 132.732 96.0517 132.627C96.0689 132.562 96.0304 132.496 95.9658 132.479C95.9017 132.462 95.8351 132.5 95.8179 132.565C95.7902 132.669 93.0226 143.052 90.0404 148.566C88.934 150.611 87.0296 151.715 85.1878 151.38C84.2151 151.203 83.2449 150.619 82.3033 149.645C81.1865 148.489 80.1014 146.772 79.0784 144.541C79.0508 144.48 78.9788 144.454 78.9181 144.481C78.8574 144.509 78.8308 144.581 78.8584 144.642C80.7949 148.864 82.91 151.211 85.1444 151.618C85.3757 151.66 85.6085 151.681 85.8418 151.681Z" fill="black"/>
<path d="M95.9348 132.717C95.957 132.717 95.9791 132.711 95.9994 132.698C97.4974 131.752 98.6037 130.531 99.8038 128.991C101.044 127.399 101.423 125.895 101.149 125.288C101.071 125.114 100.936 125.011 100.768 124.996C100.49 124.93 100.295 125.253 100.001 125.739C99.5532 126.478 98.8775 127.596 97.4643 128.269C97.4042 128.297 97.3785 128.369 97.4071 128.43C97.4357 128.49 97.5077 128.516 97.5684 128.487C99.0477 127.783 99.7456 126.629 100.208 125.864C100.405 125.539 100.608 125.203 100.716 125.233C100.724 125.235 100.733 125.236 100.741 125.237C100.772 125.239 100.864 125.245 100.929 125.388C101.132 125.839 100.854 127.249 99.6134 128.842C98.4291 130.363 97.339 131.566 95.8706 132.494C95.8144 132.529 95.7971 132.604 95.8331 132.661C95.8563 132.697 95.8953 132.717 95.9357 132.717H95.9348Z" fill="black"/>
<path d="M97.6118 128.4C97.6389 128.4 97.6661 128.391 97.6883 128.372C98.1943 127.957 98.4992 127.671 98.9663 127.068C100.001 125.806 100.349 124.155 100.086 123.289C100.003 123.014 99.8605 122.838 99.6736 122.779C99.3328 122.649 99.0191 122.922 98.7414 123.59C98.7404 123.592 98.7394 123.595 98.7389 123.597C98.1416 125.311 96.4615 126.999 96.2272 127.163C96.2243 127.164 96.2213 127.165 96.2184 127.166C96.1547 127.185 96.1187 127.253 96.138 127.317C96.1533 127.366 96.2026 127.403 96.2549 127.404C96.3003 127.405 96.3506 127.406 96.6963 127.062C96.9326 126.826 97.197 126.533 97.4407 126.236C97.9443 125.621 98.618 124.678 98.9663 123.68C99.0896 123.384 99.3337 122.905 99.5902 123.006C99.5932 123.007 99.5962 123.008 99.5991 123.009C99.7057 123.041 99.7964 123.165 99.8551 123.359C100.061 124.039 99.863 125.592 98.7774 126.917C98.3201 127.508 98.037 127.774 97.5354 128.185C97.4836 128.228 97.4762 128.304 97.5186 128.356C97.5427 128.385 97.5773 128.4 97.6123 128.4H97.6118Z" fill="black"/>
<path d="M96.2538 127.402C96.2829 127.402 96.3125 127.392 96.3357 127.37C97.3019 126.482 98.541 125.07 98.9563 123.39C98.9608 123.373 98.9652 123.354 98.9686 123.34C98.9765 123.33 98.9825 123.317 98.9869 123.305C99.237 122.507 99.056 121.858 98.7442 121.711C98.6209 121.647 98.4971 121.633 98.3758 121.67C98.0384 121.773 97.7794 122.264 97.4514 122.884C97.3241 123.124 97.1924 123.374 97.042 123.629C96.4092 124.802 95.5233 125.9 94.8347 126.365C94.7795 126.403 94.7647 126.478 94.8021 126.533C94.8396 126.588 94.9146 126.603 94.9699 126.566C95.6875 126.081 96.605 124.948 97.2521 123.748C97.4031 123.492 97.5422 123.229 97.665 122.997C97.955 122.449 98.2051 121.976 98.4468 121.901C98.507 121.883 98.5666 121.891 98.6337 121.926C98.6357 121.927 98.6382 121.928 98.6401 121.929C98.798 122.002 98.9755 122.5 98.7659 123.2C98.7462 123.233 98.7353 123.277 98.7215 123.332C98.3205 124.953 97.114 126.326 96.1719 127.192C96.1226 127.237 96.1196 127.314 96.1645 127.362C96.1882 127.389 96.2207 127.401 96.2538 127.401V127.402Z" fill="black"/>
<path d="M92.7884 126.942C92.8111 126.942 92.8337 126.936 92.854 126.922C93.1376 126.738 93.8276 125.857 94.5483 124.586C94.8886 124.065 95.152 123.473 95.3848 122.95C95.6443 122.368 95.9383 121.707 96.1296 121.779C96.1366 121.781 96.1439 121.783 96.1509 121.785C96.2007 121.793 96.2416 121.826 96.2761 121.886C96.4202 122.131 96.4286 122.81 96.1075 123.716C95.778 124.722 95.339 125.623 94.8028 126.396C94.7648 126.451 94.7781 126.526 94.8334 126.564C94.8881 126.602 94.9636 126.589 95.0016 126.534C95.5515 125.742 96.0004 124.819 96.3368 123.794C96.6377 122.944 96.6979 122.126 96.4853 121.763C96.4167 121.645 96.3195 121.571 96.2036 121.547C95.8051 121.411 95.5353 122.016 95.1639 122.851C94.9345 123.366 94.6746 123.951 94.3441 124.456C94.3426 124.458 94.3411 124.46 94.3401 124.462C93.6027 125.764 92.9393 126.578 92.7228 126.718C92.6665 126.754 92.6507 126.829 92.6872 126.885C92.7104 126.921 92.7494 126.94 92.7889 126.94L92.7884 126.942Z" fill="black"/>
<path d="M90.7353 131.215C90.757 131.215 90.7792 131.21 90.799 131.197C90.8557 131.162 90.873 131.088 90.8384 131.031C90.83 131.017 90.3131 130.098 91.0678 127.599C91.2695 127.13 91.4654 125.902 91.5941 124.951C91.6178 124.778 91.7475 124.694 91.8609 124.673C91.9744 124.652 92.1248 124.685 92.2082 124.839C92.5189 125.416 92.6645 126.406 92.6398 127.783C92.6388 127.85 92.6916 127.905 92.7587 127.906C92.8243 127.909 92.8805 127.855 92.882 127.787C92.9076 126.369 92.7527 125.338 92.4218 124.725C92.3024 124.504 92.0661 124.39 91.8185 124.435C91.5709 124.48 91.3889 124.67 91.3554 124.919C91.1753 126.247 90.9938 127.168 90.8443 127.509C90.8424 127.514 90.8409 127.518 90.8394 127.522C90.0418 130.16 90.6091 131.119 90.6337 131.159C90.6564 131.196 90.6964 131.216 90.7368 131.216L90.7353 131.215Z" fill="black"/>
<path d="M93.7353 131.501C93.7832 131.501 93.8281 131.473 93.8473 131.426C94.3652 130.16 94.0604 129.209 93.7136 128.634C93.3388 128.014 92.846 127.696 92.8253 127.683C92.7686 127.647 92.6941 127.664 92.6586 127.72C92.6231 127.777 92.6393 127.852 92.6956 127.887C92.7005 127.89 93.1671 128.193 93.5119 128.768C93.9701 129.532 94.0076 130.396 93.6239 131.334C93.5987 131.396 93.6283 131.467 93.69 131.492C93.7048 131.498 93.7205 131.501 93.7358 131.501H93.7353Z" fill="black"/>
<path d="M75.1022 122.503C75.2743 122.519 75.4302 122.566 75.4603 122.665C75.4845 122.746 75.4203 122.862 75.3182 122.974C75.2156 123.086 75.079 123.189 74.9384 123.278C74.1946 123.834 72.9274 123.761 72.6986 122.554C72.6073 122.103 72.7923 121.624 73.1785 121.712C73.6797 121.812 74.1877 122.421 75.1027 122.504L75.1022 122.503Z" fill="black"/>
<path d="M72.8856 122.815C72.8535 122.837 72.8259 122.862 72.7997 122.888C73.0602 123.489 73.6506 123.684 74.2119 123.588C74.2025 123.417 74.134 123.236 74.0052 123.077C73.7098 122.711 73.2086 122.593 72.8856 122.815V122.815Z" fill="white"/>
<path d="M73.9505 123.635C74.2923 123.635 74.6469 123.521 74.9385 123.304C75.0948 123.204 75.2211 123.103 75.3128 123.004C75.4026 122.905 75.5018 122.763 75.4648 122.639C75.4302 122.523 75.2941 122.454 75.0608 122.433C74.5508 122.387 74.1793 122.164 73.8518 121.968C73.6284 121.835 73.4355 121.719 73.2333 121.679C73.0907 121.647 72.9605 121.682 72.8589 121.782C72.6956 121.942 72.6281 122.258 72.6907 122.568C72.781 123.042 73.0498 123.389 73.4488 123.545C73.6062 123.606 73.7769 123.635 73.951 123.635H73.9505ZM73.1342 121.813C73.1563 121.813 73.1795 121.815 73.2032 121.821C73.3823 121.856 73.5652 121.966 73.7773 122.093C74.1014 122.287 74.5044 122.528 75.0475 122.577C75.2354 122.594 75.3148 122.643 75.3257 122.68C75.336 122.715 75.3035 122.799 75.2058 122.905C75.1224 122.995 75.0051 123.089 74.8581 123.183C74.8566 123.184 74.8551 123.185 74.8536 123.186C74.459 123.48 73.9155 123.57 73.5011 123.409C73.253 123.312 72.9359 123.083 72.8328 122.54C72.78 122.279 72.8328 122.01 72.96 121.886C73.0094 121.837 73.0676 121.813 73.1342 121.813Z" fill="black"/>
<path d="M51.0232 153.744C51.0479 153.744 51.0725 153.736 51.0942 153.72C51.148 153.681 51.1603 153.605 51.1209 153.552C51.1021 153.526 49.2362 150.939 48.1121 147.747C46.6136 143.494 47.0703 140.247 49.4695 138.098C49.5193 138.054 49.5232 137.977 49.4789 137.927C49.4345 137.878 49.358 137.874 49.3082 137.918C47.9419 139.142 47.1793 140.738 47.0412 142.663C46.9317 144.194 47.2153 145.932 47.8852 147.832C49.0216 151.057 50.9058 153.668 50.9246 153.694C50.9482 153.727 50.9852 153.744 51.0227 153.744L51.0232 153.744Z" fill="black"/>
<path d="M58.7308 155.385C58.7308 155.385 64.0525 159.442 63.0049 160.572C62.6147 160.578 60.8247 159.936 59.7785 158.371C59.8525 158.44 63.3008 161.854 62.0312 162.956C61.7387 163.015 61.0067 162.578 60.6802 162.181C60.7838 162.307 61.8127 163.802 60.5085 163.695C60.4424 163.61 57.2304 160.611 57.2304 160.611C57.2304 160.611 58.8043 163.178 57.9175 163.691C57.7705 163.676 55.3659 161.31 54.9239 160.208C54.8795 160.141 51.1663 153.885 51.1663 153.885L56.125 153.073L58.7318 155.385L58.7308 155.385Z" fill="white"/>
<path d="M57.8848 163.814C58.0086 163.814 58.1196 163.766 58.2153 163.673C58.2212 163.667 58.2266 163.661 58.2311 163.654C58.4274 163.364 58.5971 163.112 57.0034 159.866C56.9738 159.805 56.9013 159.781 56.8416 159.81C56.7814 159.84 56.7567 159.912 56.7863 159.972C58.2888 163.033 58.164 163.319 58.0382 163.508C57.9849 163.557 57.9282 163.577 57.8611 163.57C57.396 163.528 56.5723 162.362 55.7002 161.128C54.0355 158.772 52.2958 155.714 51.1297 153.565C51.0977 153.506 51.0247 153.484 50.9655 153.516C50.9068 153.549 50.8851 153.622 50.9166 153.68C52.0856 155.836 53.8303 158.902 55.5019 161.267C56.5935 162.812 57.2899 163.761 57.8384 163.812C57.8542 163.813 57.8695 163.814 57.8848 163.814Z" fill="black"/>
<path d="M60.7759 163.816C60.9254 163.816 61.0512 163.762 61.1503 163.657C61.3841 163.419 61.4433 162.923 61.0157 162.4C59.9379 161.08 58.0966 158.875 58.0779 158.853C58.035 158.801 57.959 158.794 57.9077 158.837C57.8564 158.88 57.8495 158.957 57.8924 159.008C57.9111 159.03 59.7515 161.234 60.8282 162.553C61.1464 162.942 61.1434 163.319 60.9757 163.489C60.918 163.55 60.8509 163.576 60.7621 163.573C60.4386 163.563 59.7386 163.166 58.2387 161.337L56.9878 159.841C56.9449 159.79 56.8684 159.784 56.8171 159.826C56.7658 159.869 56.7589 159.946 56.8018 159.997L58.0522 161.492C59.3194 163.037 60.2033 163.797 60.7538 163.816C60.7612 163.816 60.7681 163.816 60.7755 163.816H60.7759Z" fill="black"/>
<path d="M61.8314 163.143C61.9375 163.143 62.0307 163.112 62.1077 163.05C62.3119 162.884 62.4263 162.671 62.4465 162.417C62.52 161.497 61.3308 160.169 60.2812 158.996C59.8338 158.496 59.4111 158.024 59.1299 157.632C59.0909 157.578 59.0155 157.565 58.9612 157.604C58.907 157.643 58.8946 157.719 58.9336 157.773C59.2221 158.175 59.6493 158.652 60.1011 159.157C61.1182 160.294 62.2704 161.582 62.2053 162.397C62.19 162.586 62.1086 162.738 61.9552 162.862C61.8226 162.97 61.4704 162.869 61.0092 162.392C60.9628 162.344 60.8859 162.342 60.838 162.389C60.7902 162.435 60.7887 162.512 60.8351 162.56C61.2021 162.94 61.5577 163.143 61.8309 163.143H61.8314Z" fill="black"/>
<path d="M62.8269 160.732C62.8427 160.732 62.8585 160.732 62.8738 160.73C63.0158 160.719 63.1313 160.659 63.2171 160.553C63.3044 160.464 63.3448 160.347 63.3379 160.205C63.2778 158.942 58.9899 155.439 58.8074 155.291C58.7556 155.248 58.6792 155.257 58.6372 155.309C58.5953 155.361 58.6027 155.437 58.655 155.479C59.8748 156.472 63.0509 159.257 63.0967 160.216C63.1017 160.316 63.0676 160.361 63.042 160.387C63.038 160.39 63.0351 160.394 63.0316 160.398C62.9877 160.454 62.9315 160.484 62.855 160.489C62.8442 160.49 62.8328 160.491 62.8215 160.491C62.2414 160.491 61.0414 159.378 60.0731 158.48C59.7214 158.153 59.389 157.845 59.1093 157.611C59.058 157.568 58.9815 157.575 58.9391 157.626C58.8962 157.677 58.9031 157.753 58.9539 157.796C59.2287 158.026 59.5586 158.332 59.9084 158.657C60.9585 159.631 62.1457 160.732 62.8269 160.732Z" fill="black"/>
<path d="M72.2655 132.661C73.1391 132.661 74.0185 132.63 74.901 132.567C78.7518 132.293 81.3586 131.504 81.3848 131.496C81.4484 131.476 81.4844 131.408 81.4652 131.345C81.4454 131.281 81.3778 131.245 81.3142 131.264C81.2886 131.272 78.7025 132.055 74.8773 132.326C71.35 132.576 66.017 132.431 60.6416 130.315C60.5789 130.29 60.5094 130.321 60.4847 130.383C60.46 130.445 60.4906 130.516 60.5528 130.54C62.9465 131.483 65.5312 132.119 68.2352 132.432C69.5531 132.585 70.9017 132.661 72.2655 132.661Z" fill="black"/>
<path d="M79.0448 144.309C79.0611 144.309 79.0779 144.306 79.0937 144.299C82.5385 142.783 85.2865 139.817 85.3141 139.788C85.3595 139.738 85.356 139.662 85.3067 139.617C85.2574 139.572 85.1809 139.575 85.136 139.624C85.1089 139.654 82.394 142.583 78.9965 144.078C78.9353 144.104 78.9077 144.176 78.9344 144.237C78.9541 144.282 78.9985 144.31 79.0453 144.31L79.0448 144.309Z" fill="black"/>
<path d="M59.662 140.782C59.6985 140.782 59.735 140.766 59.7587 140.734C59.7987 140.681 59.7883 140.605 59.7345 140.565C57.0325 138.531 55.6036 133.594 55.5898 133.544C55.5715 133.48 55.5044 133.443 55.4403 133.461C55.3762 133.479 55.3387 133.546 55.3569 133.61C55.3604 133.623 55.7229 134.887 56.4204 136.389C57.0661 137.78 58.1399 139.667 59.5895 140.758C59.6112 140.774 59.6369 140.782 59.662 140.782Z" fill="black"/>
<path d="M79.141 145.733H79.143C79.1973 145.732 79.2407 145.686 79.2397 145.632C79.2175 144.619 79.3063 143.382 79.4296 142.965C80.716 140.909 80.6445 139.349 80.3574 138.403C80.0437 137.37 79.4271 136.836 79.401 136.813C79.3595 136.778 79.2974 136.783 79.2619 136.825C79.2264 136.866 79.2313 136.928 79.2732 136.964C79.2791 136.969 79.877 137.49 80.1719 138.472C80.5626 139.772 80.2454 141.294 79.2555 142.871C79.251 142.878 79.2471 142.886 79.2446 142.894C79.1119 143.322 79.0192 144.578 79.0424 145.636C79.0434 145.69 79.0878 145.733 79.141 145.733Z" fill="white"/>
<path d="M63.0788 140.068C63.0828 140.068 63.0872 140.068 63.0911 140.067C63.1454 140.06 63.1834 140.01 63.177 139.957C63.1715 139.915 63.0468 138.925 62.774 138.346C62.7508 138.297 62.6921 138.275 62.6428 138.299C62.5934 138.322 62.5722 138.381 62.5954 138.43C62.8544 138.98 62.9797 139.971 62.9811 139.981C62.9871 140.031 63.03 140.067 63.0788 140.067V140.068Z" fill="white"/>
<defs>
<linearGradient id="paint0_linear_48_70" x1="157.943" y1="392.67" x2="157.941" y2="19.206" gradientUnits="userSpaceOnUse">
<stop stop-color="#E4FFF5"/>
<stop offset="1" stop-color="#FDFDFD"/>
</linearGradient>
<clipPath id="clip0_48_70">
<rect width="312" height="224" fill="white"/>
</clipPath>
</defs>
</svg>
